<svg width="25" height="24" viewBox="0 0 25 24" fill="none" xmlns="http://www.w3.org/2000/svg">
<path d="M19.458 12C19.458 12.1989 19.379 12.3897 19.2383 12.5303C19.0977 12.671 18.9069 12.75 18.708 12.75H6.70801C6.5091 12.75 6.31833 12.671 6.17768 12.5303C6.03703 12.3897 5.95801 12.1989 5.95801 12C5.95801 11.8011 6.03703 11.6103 6.17768 11.4697C6.31833 11.329 6.5091 11.25 6.70801 11.25H18.708C18.9069 11.25 19.0977 11.329 19.2383 11.4697C19.379 11.6103 19.458 11.8011 19.458 12ZM22.458 6.75H2.95801C2.7591 6.75 2.56833 6.82902 2.42768 6.96967C2.28703 7.11032 2.20801 7.30109 2.20801 7.5C2.20801 7.69891 2.28703 7.88968 2.42768 8.03033C2.56833 8.17098 2.7591 8.25 2.95801 8.25H22.458C22.6569 8.25 22.8477 8.17098 22.9883 8.03033C23.129 7.88968 23.208 7.69891 23.208 7.5C23.208 7.30109 23.129 7.11032 22.9883 6.96967C22.8477 6.82902 22.6569 6.75 22.458 6.75ZM14.958 15.75H10.458C10.2591 15.75 10.0683 15.829 9.92768 15.9697C9.78703 16.1103 9.70801 16.3011 9.70801 16.5C9.70801 16.6989 9.78703 16.8897 9.92768 17.0303C10.0683 17.171 10.2591 17.25 10.458 17.25H14.958C15.1569 17.25 15.3477 17.171 15.4883 17.0303C15.629 16.8897 15.708 16.6989 15.708 16.5C15.708 16.3011 15.629 16.1103 15.4883 15.9697C15.3477 15.829 15.1569 15.75 14.958 15.75Z" fill="#343330"/>
</svg>
