<svg width="32" height="33" viewBox="0 0 32 33" fill="none" xmlns="http://www.w3.org/2000/svg">
<g id="FileImage">
<path id="Vector" d="M13.8324 18.945C13.7411 18.8078 13.6174 18.6953 13.4721 18.6175C13.3269 18.5397 13.1647 18.499 12.9999 18.499C12.8351 18.499 12.6729 18.5397 12.5277 18.6175C12.3824 18.6953 12.2587 18.8078 12.1674 18.945L9.56115 22.8563L8.34115 20.9587C8.25061 20.8179 8.12613 20.702 7.97915 20.6217C7.83216 20.5415 7.66737 20.4994 7.4999 20.4994C7.33243 20.4994 7.16764 20.5415 7.02065 20.6217C6.87367 20.702 6.74919 20.8179 6.65865 20.9587L2.15865 27.9587C2.0614 28.1098 2.00666 28.2843 2.00017 28.4639C1.99367 28.6434 2.03567 28.8214 2.12175 28.9791C2.20783 29.1368 2.33481 29.2684 2.48934 29.3601C2.64386 29.4517 2.82023 29.5001 2.9999 29.5H18.9999C19.181 29.5001 19.3587 29.4511 19.5141 29.3581C19.6695 29.2651 19.7967 29.1316 19.8822 28.972C19.9676 28.8123 20.0081 28.6325 19.9994 28.4516C19.9906 28.2707 19.9329 28.0956 19.8324 27.945L13.8324 18.945ZM4.83115 27.5L7.4999 23.3487L8.70365 25.2237C8.79343 25.3635 8.91661 25.4787 9.06208 25.5589C9.20754 25.6392 9.37069 25.6819 9.53681 25.6833C9.70292 25.6846 9.86676 25.6446 10.0135 25.5668C10.1603 25.4889 10.2853 25.3758 10.3774 25.2375L13.0024 21.3037L17.1312 27.5H4.83115ZM26.7062 10.7925L19.7062 3.7925C19.5188 3.60532 19.2648 3.50012 18.9999 3.5H6.9999C6.46947 3.5 5.96076 3.71071 5.58569 4.08579C5.21061 4.46086 4.9999 4.96957 4.9999 5.5V17.5C4.9999 17.7652 5.10526 18.0196 5.29279 18.2071C5.48033 18.3946 5.73468 18.5 5.9999 18.5C6.26512 18.5 6.51947 18.3946 6.70701 18.2071C6.89454 18.0196 6.9999 17.7652 6.9999 17.5V5.5H17.9999V11.5C17.9999 11.7652 18.1053 12.0196 18.2928 12.2071C18.4803 12.3946 18.7347 12.5 18.9999 12.5H24.9999V27.5H23.9999C23.7347 27.5 23.4803 27.6054 23.2928 27.7929C23.1053 27.9804 22.9999 28.2348 22.9999 28.5C22.9999 28.7652 23.1053 29.0196 23.2928 29.2071C23.4803 29.3946 23.7347 29.5 23.9999 29.5H24.9999C25.5303 29.5 26.039 29.2893 26.4141 28.9142C26.7892 28.5391 26.9999 28.0304 26.9999 27.5V11.5C27 11.3686 26.9742 11.2385 26.924 11.1172C26.8738 10.9958 26.8002 10.8854 26.7074 10.7925H26.7062ZM19.9999 6.91375L23.5862 10.5H19.9999V6.91375Z" fill="#002283"/>
</g>
</svg>
