<svg width="17" height="16" viewBox="0 0 17 16" fill="none" xmlns="http://www.w3.org/2000/svg">
<g id="Hand">
<path id="Vector" d="M14.2078 3.99994V9.68306C14.2078 12.5706 11.9046 14.9674 9.02027 14.9993C8.32022 15.0088 7.62539 14.8776 6.97696 14.6136C6.32852 14.3496 5.73966 13.9582 5.24527 13.4624C3.88215 12.0206 2.34215 8.49994 2.34215 8.49994C2.27441 8.3827 2.23118 8.25292 2.21509 8.11848C2.199 7.98404 2.21038 7.84773 2.24855 7.71781C2.28671 7.5879 2.35086 7.46709 2.4371 7.36271C2.52334 7.25832 2.62989 7.17254 2.75027 7.11056C3.22902 6.86056 3.81902 7.05806 4.08777 7.52431L5.40027 9.80181C5.43678 9.86739 5.49185 9.92071 5.55857 9.95507C5.6253 9.98943 5.70069 10.0033 5.77527 9.99494H5.78277C5.90288 9.97426 6.01166 9.91142 6.08957 9.8177C6.16748 9.72399 6.20939 9.60555 6.20777 9.48369V2.99994C6.20762 2.86447 6.23499 2.73038 6.28822 2.6058C6.34146 2.48123 6.41945 2.36877 6.51747 2.27526C6.61549 2.18174 6.73148 2.10912 6.85842 2.06179C6.98535 2.01446 7.12058 1.99342 7.2559 1.99994C7.79402 2.02494 8.20777 2.48869 8.20777 3.02681V6.99994C8.20762 7.06848 8.22157 7.13632 8.24874 7.19925C8.27591 7.26218 8.31573 7.31885 8.36573 7.36574C8.41573 7.41263 8.47483 7.44874 8.53937 7.47182C8.60391 7.49491 8.6725 7.50448 8.7409 7.49994C8.86947 7.48889 8.98909 7.42958 9.07571 7.33392C9.16233 7.23826 9.20951 7.11335 9.20777 6.98431V1.99994C9.20762 1.86447 9.23499 1.73038 9.28822 1.6058C9.34146 1.48123 9.41945 1.36877 9.51747 1.27526C9.61549 1.18174 9.73148 1.10912 9.85842 1.06179C9.98535 1.01446 10.1206 0.993418 10.2559 0.999938C10.794 1.02494 11.2078 1.48869 11.2078 2.02681V7.49994C11.2076 7.56848 11.2216 7.63632 11.2487 7.69925C11.2759 7.76218 11.3157 7.81885 11.3657 7.86574C11.4157 7.91263 11.4748 7.94874 11.5394 7.97182C11.6039 7.99491 11.6725 8.00448 11.7409 7.99994C11.8695 7.98889 11.9891 7.92958 12.0757 7.83392C12.1623 7.73826 12.2095 7.61335 12.2078 7.48431V4.02806C12.2078 3.48994 12.6215 3.02806 13.1596 3.00119C13.2949 2.99467 13.43 3.01568 13.5568 3.06293C13.6837 3.11018 13.7996 3.18269 13.8976 3.27608C13.9956 3.36946 14.0736 3.48177 14.127 3.60619C14.1803 3.73062 14.2078 3.86457 14.2078 3.99994Z" fill="#F5F5F5"/>
</g>
</svg>
