<svg width="15" height="14" viewBox="0 0 15 14" fill="none" xmlns="http://www.w3.org/2000/svg">
<g id="Plant">
<path id="Vector" d="M11.9413 8.26151C11.4168 8.58034 10.8144 8.74802 10.2006 8.74604C9.6864 8.74196 9.17801 8.63679 8.70437 8.43651C8.33934 8.95184 8.14398 9.56812 8.14547 10.1996V11.8124C8.1456 11.8723 8.1334 11.9317 8.10962 11.9868C8.08584 12.0418 8.051 12.0914 8.00725 12.1324C7.96351 12.1735 7.91179 12.2051 7.85532 12.2253C7.79885 12.2455 7.73883 12.2538 7.67898 12.2499C7.56653 12.2401 7.46193 12.1881 7.38617 12.1045C7.31041 12.0208 7.26908 11.9116 7.27047 11.7987V11.1184L5.15844 9.00636C4.84447 9.12349 4.51243 9.18475 4.17734 9.18737C3.71604 9.18851 3.26337 9.06229 2.86922 8.82261C1.67758 8.09854 1.03609 6.43221 1.16023 4.36339C1.16648 4.25636 1.21182 4.15534 1.28763 4.07953C1.36344 4.00372 1.46445 3.95839 1.57148 3.95214C3.64031 3.83018 5.30664 4.46948 6.02851 5.66112C6.31213 6.1282 6.43595 6.67492 6.38125 7.21862C6.37785 7.26075 6.36232 7.30098 6.33653 7.33447C6.31075 7.36796 6.27582 7.39326 6.23597 7.40731C6.19611 7.42137 6.15303 7.42358 6.11195 7.41368C6.07086 7.40378 6.03353 7.38218 6.00445 7.35151L4.95445 6.25229C4.87174 6.17371 4.7616 6.13055 4.64751 6.13201C4.53343 6.13347 4.42443 6.17944 4.34375 6.26011C4.26308 6.34079 4.21711 6.44979 4.21565 6.56387C4.21419 6.67795 4.25735 6.78809 4.33594 6.87081L7.2825 9.89229C7.28578 9.84964 7.28961 9.80698 7.29398 9.76487C7.38965 8.95372 7.74759 8.19599 8.31336 7.6069L11.08 4.68331C11.1621 4.60129 11.2082 4.49002 11.2083 4.37397C11.2083 4.25793 11.1623 4.14661 11.0803 4.06452C10.9983 3.98243 10.887 3.93628 10.7709 3.93623C10.6549 3.93618 10.5436 3.98223 10.4615 4.06425L7.7818 6.89815C7.75497 6.92656 7.72103 6.94727 7.68349 6.95812C7.64596 6.96898 7.6062 6.96958 7.56836 6.95987C7.53051 6.95015 7.49596 6.93048 7.46829 6.90289C7.44062 6.87531 7.42084 6.84081 7.41101 6.803C7.1518 5.84706 7.26609 4.8955 7.76101 4.07846C8.73773 2.46628 11.0105 1.60331 13.8412 1.76956C13.9482 1.77581 14.0492 1.82114 14.125 1.89696C14.2008 1.97277 14.2462 2.07378 14.2524 2.18081C14.4165 5.01198 13.5535 7.28479 11.9413 8.26151Z" fill="#F5F5F5"/>
</g>
</svg>
