<svg width="20" height="20" viewBox="0 0 20 20" fill="none" xmlns="http://www.w3.org/2000/svg">
<path d="M9.93717 18.1251C5.22884 18.1251 1.39551 14.2917 1.39551 9.58342C1.39551 4.87508 5.22884 1.04175 9.93717 1.04175C14.6455 1.04175 18.4788 4.87508 18.4788 9.58342C18.4788 14.2917 14.6455 18.1251 9.93717 18.1251ZM9.93717 2.29175C5.91217 2.29175 2.64551 5.56675 2.64551 9.58342C2.64551 13.6001 5.91217 16.8751 9.93717 16.8751C13.9622 16.8751 17.2288 13.6001 17.2288 9.58342C17.2288 5.56675 13.9622 2.29175 9.93717 2.29175Z" fill="#78828E"/>
<path d="M18.6875 18.9583C18.5292 18.9583 18.3709 18.9 18.2459 18.775L16.5792 17.1083C16.3375 16.8666 16.3375 16.4666 16.5792 16.225C16.8209 15.9833 17.2209 15.9833 17.4625 16.225L19.1292 17.8916C19.3709 18.1333 19.3709 18.5333 19.1292 18.775C19.0042 18.9 18.8459 18.9583 18.6875 18.9583Z" fill="#78828E"/>
</svg>
