<svg width="17" height="17" viewBox="0 0 17 17" fill="none" xmlns="http://www.w3.org/2000/svg">
<g id="Warning">
<path id="Vector" d="M15.5077 12.2557L10.0421 2.76379C9.9055 2.53124 9.71051 2.33843 9.47646 2.20445C9.2424 2.07048 8.97739 2 8.7077 2C8.43801 2 8.17301 2.07048 7.93895 2.20445C7.70489 2.33843 7.50991 2.53124 7.37333 2.76379L1.9077 12.2557C1.77629 12.4806 1.70703 12.7364 1.70703 12.9969C1.70703 13.2574 1.77629 13.5132 1.9077 13.7382C2.04253 13.9721 2.23718 14.166 2.47168 14.2999C2.70617 14.4338 2.97207 14.5028 3.24208 14.5H14.1733C14.4431 14.5026 14.7088 14.4334 14.943 14.2996C15.1773 14.1657 15.3717 13.9719 15.5065 13.7382C15.6381 13.5134 15.7075 13.2576 15.7077 12.9971C15.708 12.7366 15.6389 12.4807 15.5077 12.2557ZM8.2077 7.00004C8.2077 6.86743 8.26038 6.74026 8.35415 6.64649C8.44792 6.55272 8.57509 6.50004 8.7077 6.50004C8.84031 6.50004 8.96749 6.55272 9.06126 6.64649C9.15502 6.74026 9.2077 6.86743 9.2077 7.00004V9.50004C9.2077 9.63265 9.15502 9.75983 9.06126 9.85359C8.96749 9.94736 8.84031 10 8.7077 10C8.57509 10 8.44792 9.94736 8.35415 9.85359C8.26038 9.75983 8.2077 9.63265 8.2077 9.50004V7.00004ZM8.7077 12.5C8.55937 12.5 8.41436 12.4561 8.29102 12.3736C8.16769 12.2912 8.07156 12.1741 8.01479 12.0371C7.95803 11.9 7.94317 11.7492 7.97211 11.6037C8.00105 11.4582 8.07248 11.3246 8.17737 11.2197C8.28226 11.1148 8.4159 11.0434 8.56138 11.0145C8.70687 10.9855 8.85767 11.0004 8.99471 11.0571C9.13176 11.1139 9.24889 11.21 9.3313 11.3334C9.41371 11.4567 9.4577 11.6017 9.4577 11.75C9.4577 11.949 9.37868 12.1397 9.23803 12.2804C9.09738 12.421 8.90661 12.5 8.7077 12.5Z" fill="#F5F5F5"/>
</g>
</svg>
